<svg xmlns:rdf="http://www.w3.org/1999/02/22-rdf-syntax-ns#" xmlns="http://www.w3.org/2000/svg" version="1.1" xmlns:cc="http://creativecommons.org/ns#" xmlns:dc="http://purl.org/dc/elements/1.1/" viewBox="0 0 300 60" width="300" height="60">
 <g transform="matrix(.75 0 0 .75 7 -740.27)">
  <path style="color:#000000;block-progression:tb;text-decoration-line:none;text-transform:none;text-indent:0" d="m11 992.36c-1.6447 0-3 1.3553-3 3v50c0 1.6447 1.3553 3 3 3h42c1.6447 0 3-1.3553 3-3v-50c0-1.6447-1.3553-3-3-3zm3 4h36c1.0907 0 2 0.9093 2 2v28c0 1.0907-0.9093 2-2 2h-36c-1.0907 0-2-0.9093-2-2v-28c0-1.0907 0.9093-2 2-2zm18.812 36c0.0623-0.01 0.12519-0.01 0.1875 0h18c0.52359 0 0.99995 0.4764 1 1v2c-0.00005 0.5236-0.47641 0.9999-1 1h-18c-0.52358-0.0001-0.99994-0.4764-1-1v-2c-0.008-0.4666 0.3541-0.9126 0.8125-1z" fill="#808080"/>
  <path style="color:#000000;block-progression:tb;text-decoration-line:none;text-transform:none;text-indent:0" d="m43 1000.4-4 24h6l4-24z" fill="#31d58f"/>
  <path style="color:#000000;block-progression:tb;text-decoration-line:none;text-transform:none;text-indent:0" d="m35 1000.4-4 24h6l4-24z" fill="#e5b41f"/>
  <path style="color:#000000;block-progression:tb;text-decoration-line:none;text-transform:none;text-indent:0" d="m27 1000.4-4 24h6l4-24z" fill="#50a1ef"/>
  <path style="color:#000000;block-progression:tb;text-decoration-line:none;text-transform:none;text-indent:0" d="m19 1000.4-4 24h6l4-24z" fill="#c64438"/>
 </g>
 <g transform="translate(0 4.9991)" fill="#ddd">
  <path d="m137.81 25.011-7.44 12.99h-5.34l-0.69-7.56-4.35 7.56h-4.89l-1.95-12.99h3.78l1.29 10.35 6.06-10.35h2.76l1.11 10.35 5.88-10.35h3.78z"/>
  <path d="m152.05 33.081h-8.58l0.66-3.12h5.01q0.18-0.84 0.18-0.93 0-0.9-1.44-0.9h-2.94q-0.6 0-1.02 0.06-0.39 0.06-0.66 0.27-0.24 0.18-0.42 0.54-0.15 0.36-0.27 0.96l-0.66 3.12q-0.12 0.6-0.12 0.96 0 0.51 0.33 0.69 0.36 0.15 1.41 0.15h7.56l-0.66 3.09h-8.97q-1.08 0-1.8-0.09t-1.14-0.33-0.6-0.6q-0.18-0.39-0.18-0.99 0-0.33 0.06-0.72 0.06-0.42 0.18-0.93l1.17-5.61q0.42-1.98 1.59-2.82 1.2-0.87 3.48-0.87h5.28q2.07 0 2.88 0.42t0.81 1.62q0 0.69-0.21 1.65l-0.93 4.38z"/>
  <path d="m167.51 34.341q-0.24 1.17-0.6 1.89-0.33 0.69-0.9 1.11-0.54 0.39-1.41 0.54-0.84 0.12-2.13 0.12h-9.51l3.66-17.28h3.69l-3 14.16h4.41q0.63 0 1.02-0.03 0.42-0.06 0.66-0.24 0.27-0.18 0.39-0.54 0.15-0.36 0.3-0.99l0.66-3.12q0.15-0.75 0.15-0.99 0-0.51-0.36-0.66-0.33-0.15-1.38-0.15h-3.12l0.66-3.12h4.53q2.07 0 2.88 0.42 0.81 0.39 0.81 1.62 0 0.69-0.21 1.62l-1.2 5.64z"/>
  <path d="m180.95 28.161h-4.32q-0.69 0-1.11 0.06-0.39 0.06-0.63 0.27-0.24 0.18-0.39 0.54-0.12 0.36-0.24 0.93l-1.71 8.04h-3.69l2.76-12.96h3.69l-0.33 1.62q1.02-1.62 2.76-1.62h3.87l-0.66 3.12z"/>
  <path d="m195.76 33.081h-8.58l0.66-3.12h5.01q0.18-0.84 0.18-0.93 0-0.9-1.44-0.9h-2.94q-0.6 0-1.02 0.06-0.39 0.06-0.66 0.27-0.24 0.18-0.42 0.54-0.15 0.36-0.27 0.96l-0.66 3.12q-0.12 0.6-0.12 0.96 0 0.51 0.33 0.69 0.36 0.15 1.41 0.15h7.56l-0.66 3.09h-8.97q-1.08 0-1.8-0.09t-1.14-0.33-0.6-0.6q-0.18-0.39-0.18-0.99 0-0.33 0.06-0.72 0.06-0.42 0.18-0.93l1.17-5.61q0.42-1.98 1.59-2.82 1.2-0.87 3.48-0.87h5.28q2.07 0 2.88 0.42t0.81 1.62q0 0.69-0.21 1.65l-0.93 4.38z"/>
  <path d="m200.66 38.001h-3.69l3.66-17.25h3.69l-3.66 17.25z"/>
  <path d="m217.97 34.341q-0.24 1.17-0.6 1.89-0.33 0.69-0.9 1.11-0.54 0.39-1.41 0.54-0.87 0.12-2.16 0.12h-5.7q-2.07 0-2.88-0.39-0.81-0.42-0.81-1.65 0-0.69 0.21-1.62l1.2-5.64q0.27-1.17 0.6-1.89 0.36-0.72 0.9-1.11 0.57-0.39 1.41-0.51 0.87-0.15 2.13-0.15h5.7q1.11 0 1.83 0.12 0.72 0.09 1.14 0.33 0.42 0.21 0.57 0.63 0.18 0.39 0.18 0.96 0 0.69-0.21 1.62l-1.2 5.64zm-3.39-1.26 0.66-3.12q0.15-0.75 0.15-0.99 0-0.51-0.36-0.66-0.33-0.15-1.38-0.15h-2.94q-0.63 0-1.05 0.06-0.39 0.03-0.66 0.21-0.24 0.18-0.39 0.54t-0.27 0.99l-0.66 3.12q-0.15 0.75-0.15 0.99 0 0.51 0.33 0.66 0.36 0.15 1.41 0.15h2.94q0.69 0 1.08-0.06 0.42-0.06 0.66-0.24 0.24-0.21 0.36-0.54 0.15-0.36 0.27-0.96z"/>
  <path d="m233.14 38.001h-9.54q-1.05 0-1.77-0.09-0.69-0.09-1.14-0.3-0.42-0.24-0.63-0.63-0.18-0.39-0.18-1.02 0-0.69 0.21-1.62l0.15-0.72q0.27-1.17 0.6-1.89t0.9-1.11 1.41-0.51q0.87-0.15 2.16-0.15h4.29l-0.66 3.12h-3.99q-0.54 0-0.87 0.36-0.33 0.33-0.33 0.75 0 0.69 0.81 0.69h5.55l1.05-4.92q0.15-0.75 0.15-0.99 0-0.51-0.36-0.66-0.33-0.15-1.38-0.15h-7.56l0.66-3.12h8.94q1.05 0 1.74 0.09 0.72 0.09 1.14 0.33 0.45 0.21 0.63 0.6 0.21 0.39 0.21 1.02 0 0.69-0.21 1.62l-1.98 9.3z"/>
  <path d="m249.11 38.001h-9.48q-1.05 0-1.77-0.09-0.69-0.09-1.14-0.3-0.42-0.24-0.63-0.63-0.18-0.39-0.18-1.02 0-0.69 0.21-1.62l1.2-5.64q0.27-1.17 0.6-1.89 0.36-0.72 0.9-1.11 0.57-0.39 1.41-0.51 0.87-0.15 2.13-0.15h4.53l-0.66 3.12h-3.12q-0.63 0-1.05 0.06-0.39 0.03-0.66 0.21-0.24 0.18-0.39 0.54t-0.27 0.99l-0.66 3.12q-0.15 0.75-0.15 0.99 0 0.51 0.33 0.66 0.36 0.15 1.41 0.15h4.44l3-14.16h3.69l-3.69 17.28z"/>
  <path d="m255.27 37.971h-3.69l0.63-2.97h3.69l-0.63 2.97z"/>
  <path d="m272.3 38.001h-3.66l1.71-8.04q0.15-0.75 0.15-0.99 0-0.51-0.36-0.66-0.33-0.15-1.38-0.15h-2.94q-0.69 0-1.11 0.06-0.39 0.06-0.63 0.27-0.24 0.18-0.39 0.54-0.12 0.36-0.24 0.93l-1.71 8.04h-3.69l2.76-12.96h3.69l-0.33 1.62q1.02-1.62 2.76-1.62h3.87q2.07 0 2.88 0.42 0.81 0.39 0.81 1.62 0 0.69-0.21 1.62l-1.98 9.3z"/>
  <path d="m289.63 33.081h-8.58l0.66-3.12h5.01q0.18-0.84 0.18-0.93 0-0.9-1.44-0.9h-2.94q-0.6 0-1.02 0.06-0.39 0.06-0.66 0.27-0.24 0.18-0.42 0.54-0.15 0.36-0.27 0.96l-0.66 3.12q-0.12 0.6-0.12 0.96 0 0.51 0.33 0.69 0.36 0.15 1.41 0.15h7.56l-0.66 3.09h-8.97q-1.08 0-1.8-0.09t-1.14-0.33-0.6-0.6q-0.18-0.39-0.18-0.99 0-0.33 0.06-0.72 0.06-0.42 0.18-0.93l1.17-5.61q0.42-1.98 1.59-2.82 1.2-0.87 3.48-0.87h5.28q2.07 0 2.88 0.42t0.81 1.62q0 0.69-0.21 1.65l-0.93 4.38z"/>
  <path d="m297.97 38.001h-2.97q-2.07 0-2.88-0.39-0.81-0.42-0.81-1.65 0-0.69 0.21-1.62l2.88-13.59h3.69l-0.93 4.29h3.57l-0.69 3.12h-3.51l-1.05 4.92q-0.15 0.75-0.15 0.99 0 0.51 0.33 0.66 0.36 0.15 1.41 0.15h1.56l-0.66 3.12z"/>
 </g>
</svg>
