<svg xmlns:rdf="http://www.w3.org/1999/02/22-rdf-syntax-ns#" xmlns="http://www.w3.org/2000/svg" version="1.1" xmlns:cc="http://creativecommons.org/ns#" xmlns:dc="http://purl.org/dc/elements/1.1/" viewBox="0 0 300 60">
 <g transform="matrix(.75 0 0 .75 7 -740.27)">
  <path style="color:#000000;block-progression:tb;text-decoration-line:none;text-transform:none;text-indent:0" d="m11 992.36c-1.6447 0-3 1.3553-3 3v50c0 1.6447 1.3553 3 3 3h42c1.6447 0 3-1.3553 3-3v-50c0-1.6447-1.3553-3-3-3zm3 4h36c1.0907 0 2 0.9093 2 2v28c0 1.0907-0.9093 2-2 2h-36c-1.0907 0-2-0.9093-2-2v-28c0-1.0907 0.9093-2 2-2zm18.812 36c0.0623-0.01 0.12519-0.01 0.1875 0h18c0.52359 0 0.99995 0.4764 1 1v2c-0.00005 0.5236-0.47641 0.9999-1 1h-18c-0.52358-0.0001-0.99994-0.4764-1-1v-2c-0.008-0.4666 0.3541-0.9126 0.8125-1z" fill="#808080"/>
  <path style="color:#000000;block-progression:tb;text-decoration-line:none;text-transform:none;text-indent:0" d="m43 1000.4-4 24h6l4-24z" fill="#31d58f"/>
  <path style="color:#000000;block-progression:tb;text-decoration-line:none;text-transform:none;text-indent:0" d="m35 1000.4-4 24h6l4-24z" fill="#e5b41f"/>
  <path style="color:#000000;block-progression:tb;text-decoration-line:none;text-transform:none;text-indent:0" d="m27 1000.4-4 24h6l4-24z" fill="#50a1ef"/>
  <path style="color:#000000;block-progression:tb;text-decoration-line:none;text-transform:none;text-indent:0" d="m19 1000.4-4 24h6l4-24z" fill="#c64438"/>
 </g>
 <text style="word-spacing:0px;letter-spacing:0px" xml:space="preserve" font-size="25px" line-height="125%" y="42.352943" x="112.33031" font-family="&apos;Hemi Head 426&apos;" fill="#dddddd"><tspan font-size="30px" y="42.352943" x="112.33031" fill="#dddddd">livereload.net</tspan></text>
</svg>
