<?xml version="1.0" encoding="UTF-8" standalone="no"?>
<svg
   xmlns:dc="http://purl.org/dc/elements/1.1/"
   xmlns:cc="http://creativecommons.org/ns#"
   xmlns:rdf="http://www.w3.org/1999/02/22-rdf-syntax-ns#"
   xmlns:svg="http://www.w3.org/2000/svg"
   xmlns="http://www.w3.org/2000/svg"
   xmlns:sodipodi="http://sodipodi.sourceforge.net/DTD/sodipodi-0.dtd"
   xmlns:inkscape="http://www.inkscape.org/namespaces/inkscape"
   version="1.1"
   viewBox="0 0 196 30"
   id="svg2"
   inkscape:version="0.91 r13725"
   sodipodi:docname="patreon.svg">
  <metadata
     id="metadata20">
    <rdf:RDF>
      <cc:Work
         rdf:about="">
        <dc:format>image/svg+xml</dc:format>
        <dc:type
           rdf:resource="http://purl.org/dc/dcmitype/StillImage" />
        <dc:title>Artboard</dc:title>
      </cc:Work>
    </rdf:RDF>
  </metadata>
  <defs
     id="defs18" />
  <sodipodi:namedview
     pagecolor="#ffffff"
     bordercolor="#666666"
     borderopacity="1"
     objecttolerance="10"
     gridtolerance="10"
     guidetolerance="10"
     inkscape:pageopacity="0"
     inkscape:pageshadow="2"
     inkscape:window-width="1920"
     inkscape:window-height="1080"
     id="namedview16"
     showgrid="false"
     inkscape:zoom="6.3783918"
     inkscape:cx="115.6204"
     inkscape:cy="1.2582808"
     inkscape:window-x="0"
     inkscape:window-y="0"
     inkscape:window-maximized="0"
     inkscape:current-layer="svg2" />
  <title
     id="title4">Artboard</title>
  <desc
     id="desc6">Created with Sketch.</desc>
  <rect
     style="fill:#ff5e5b"
     x="0"
     y="0"
     width="196"
     height="30"
     rx="7.9467001"
     id="Rectangle" />
  <circle
     id="circle6"
     r="5.9475722"
     cy="12.970208"
     cx="36.740101"
     style="fill:#ffffff;fill-opacity:1" />
  <rect
     id="rect8"
     y="7.0226359"
     x="26.19936"
     width="2.907069"
     height="15.866782"
     style="fill:#012c48;fill-opacity:1" />
  <g
     style="font-style:normal;font-variant:normal;font-weight:bold;font-stretch:normal;font-size:12.8686924px;line-height:125%;font-family:'Courier 10 Pitch';-inkscape-font-specification:'Courier 10 Pitch Bold';text-align:start;letter-spacing:0px;word-spacing:0px;text-anchor:start;fill:#ffffff;fill-opacity:1;stroke:none;stroke-width:1px;stroke-linecap:butt;stroke-linejoin:miter;stroke-opacity:1"
     id="text4258">
    <path
       d="m 50.258989,17.464355 c 0.656304,0.244505 1.248264,0.308849 1.891698,0.308849 1.956041,0 3.037012,-0.862203 3.037012,-2.406446 0,-1.274 -0.733516,-1.96891 -2.290628,-2.290627 -1.299738,-0.270242 -2.020384,-0.334586 -2.020384,-0.990889 0,-0.514748 0.476141,-0.926546 1.261132,-0.926546 0.604828,0 1.055232,0.283111 1.312606,0.78499 0.154424,0.308849 0.205899,0.59196 0.720647,0.59196 0.48901,0 0.643435,-0.19303 0.643435,-0.669172 0,-0.02574 0,-0.03861 0,-0.06434 l -0.02574,-1.209657 C 54.7759,10.051988 54.672951,9.9233015 54.261153,9.9233015 c -0.347455,0 -0.501879,0.038606 -0.643435,0.3474545 -0.540485,-0.231636 -1.068101,-0.3474545 -1.647192,-0.3474545 -1.711537,0 -2.895456,1.0037585 -2.895456,2.4321825 0,1.274001 0.746384,1.750143 2.16194,2.123335 1.415556,0.373192 2.136203,0.373192 2.136203,1.183919 0,0.59196 -0.463273,0.913677 -1.222526,0.913677 -0.849333,0 -1.415556,-0.308848 -1.750142,-0.965151 -0.231636,-0.450405 -0.29598,-0.810728 -0.78499,-0.810728 -0.527617,0 -0.707778,0.205899 -0.707778,0.746384 0,0.02574 0,0.03861 0,0.06434 l 0.03861,1.479899 c 0.01287,0.527617 0.205899,0.682041 0.720647,0.682041 0.283111,0 0.450404,-0.06434 0.591959,-0.308849 z"
       style=""
       id="path4265" />
    <path
       d="m 62.337062,16.203223 0,-4.156587 c 0,-0.167293 -0.128687,-0.270243 -0.360324,-0.270243 l -1.183919,0 c -0.527617,0 -0.797859,0.154425 -0.797859,0.682041 0,0.450404 0.244505,0.694909 0.694909,0.694909 0.03861,0 0.06434,0 0.10295,0 l 0,1.814486 c 0,0.88794 -0.527617,1.402687 -1.18392,1.402687 -0.720647,0 -0.926546,-0.48901 -0.926546,-1.402687 l 0,-2.921193 c 0,-0.167293 -0.115818,-0.270243 -0.347455,-0.270243 l -1.183919,0 c -0.527617,0 -0.797859,0.154425 -0.797859,0.682041 0,0.450404 0.231636,0.694909 0.682041,0.694909 0.03861,0 0.06434,0 0.102949,0 l 0,2.097597 c 0,1.647193 0.643435,2.470789 2.007516,2.470789 0.797859,0 1.364081,-0.29598 1.763011,-0.900808 l 0,0.476141 c 0,0.167293 0.128687,0.283111 0.373192,0.283111 l 1.055233,0 c 0.527616,0 0.78499,-0.167293 0.78499,-0.694909 0,-0.450404 -0.231636,-0.682041 -0.682041,-0.682041 -0.02574,0 -0.06434,0 -0.102949,0 z"
       style=""
       id="path4267" />
    <path
       d="m 67.144323,18.69975 -0.797859,0 0,-1.711536 c 0.437536,0.360323 1.042364,0.553353 1.711536,0.553353 1.647193,0 2.895456,-1.261131 2.895456,-3.024142 0,-1.647193 -1.235395,-2.895456 -2.972668,-2.895456 -0.759253,0 -1.37695,0.29598 -1.801617,0.862202 l 0,-0.450404 c 0,-0.167293 -0.115818,-0.257374 -0.360323,-0.257374 l -0.965152,0 c -0.527617,0 -0.784991,0.154425 -0.784991,0.682041 0,0.450404 0.231637,0.694909 0.682041,0.694909 0.03861,0 0.06434,0 0.10295,0 l 0,5.546407 -0.373192,0 c -0.527617,0 -0.784991,0.167293 -0.784991,0.694909 0,0.527617 0.257374,0.682041 0.784991,0.682041 l 2.663819,0 c 0.527616,0 0.78499,-0.154424 0.78499,-0.682041 0,-0.527616 -0.257374,-0.694909 -0.78499,-0.694909 z m -0.772122,-4.105113 c 0,-0.965152 0.604829,-1.634324 1.428425,-1.634324 0.823597,0 1.428425,0.669172 1.428425,1.634324 0,0.965152 -0.617697,1.634324 -1.428425,1.634324 -0.823596,0 -1.428425,-0.669172 -1.428425,-1.634324 z"
       style=""
       id="path4269" />
    <path
       d="m 74.885645,18.69975 -0.797859,0 0,-1.711536 c 0.437536,0.360323 1.042365,0.553353 1.711537,0.553353 1.647192,0 2.895455,-1.261131 2.895455,-3.024142 0,-1.647193 -1.235394,-2.895456 -2.972668,-2.895456 -0.759252,0 -1.37695,0.29598 -1.801617,0.862202 l 0,-0.450404 c 0,-0.167293 -0.115818,-0.257374 -0.360323,-0.257374 l -0.965152,0 c -0.527616,0 -0.78499,0.154425 -0.78499,0.682041 0,0.450404 0.231636,0.694909 0.682041,0.694909 0.03861,0 0.06434,0 0.102949,0 l 0,5.546407 -0.373192,0 c -0.527616,0 -0.78499,0.167293 -0.78499,0.694909 0,0.527617 0.257374,0.682041 0.78499,0.682041 l 2.663819,0 c 0.527617,0 0.784991,-0.154424 0.784991,-0.682041 0,-0.527616 -0.257374,-0.694909 -0.784991,-0.694909 z m -0.772121,-4.105113 c 0,-0.965152 0.604828,-1.634324 1.428425,-1.634324 0.823596,0 1.428425,0.669172 1.428425,1.634324 0,0.965152 -0.617698,1.634324 -1.428425,1.634324 -0.823597,0 -1.428425,-0.669172 -1.428425,-1.634324 z"
       style=""
       id="path4271" />
    <path
       d="m 86.448971,14.684718 c 0,-1.737274 -1.338344,-3.04988 -3.423073,-3.04988 -2.084728,0 -3.435941,1.312606 -3.435941,3.04988 0,1.737273 1.351213,3.04988 3.435941,3.04988 2.084729,0 3.423073,-1.312607 3.423073,-3.04988 z m -3.423073,1.724404 c -0.97802,0 -1.685798,-0.733515 -1.685798,-1.737273 0,-0.990889 0.694909,-1.711536 1.685798,-1.711536 1.003758,0 1.67293,0.720647 1.67293,1.711536 0,0.990889 -0.68204,1.737273 -1.67293,1.737273 z"
       style=""
       id="path4273" />
    <path
       d="m 90.484111,16.203223 0,-2.033253 c 0.720646,-0.733515 1.274,-1.106708 1.67293,-1.106708 0.347454,0 0.694909,0.411799 1.209657,0.411799 0.514747,0 0.887939,-0.347455 0.887939,-0.836465 0,-0.604829 -0.48901,-1.029496 -1.338344,-1.029496 -0.990889,0 -1.711536,0.450404 -2.560869,1.364082 l 0,-0.926546 c 0,-0.167293 -0.128687,-0.270243 -0.360324,-0.270243 l -1.338344,0 c -0.527616,0 -0.78499,0.154425 -0.78499,0.682041 0,0.527616 0.257374,0.694909 0.78499,0.694909 l 0.270243,0 0,3.04988 -0.476142,0 c -0.527616,0 -0.797859,0.154425 -0.797859,0.682041 0,0.527616 0.270243,0.694909 0.797859,0.694909 l 3.513153,0 c 0.527617,0 0.78499,-0.167293 0.78499,-0.694909 0,-0.527616 -0.257373,-0.682041 -0.78499,-0.682041 l -1.479899,0 z"
       style=""
       id="path4275" />
    <path
       d="m 95.934805,13.500798 0.59196,0 0,1.608587 c 0,0.05147 0,0.102949 0,0.141555 0,0.759253 0.01287,1.338344 0.386061,1.77588 0.360323,0.424667 1.016626,0.68204 1.904566,0.68204 1.557108,0 2.869718,-0.694909 2.869718,-1.261131 0,-0.437536 -0.29598,-0.720647 -0.63057,-0.720647 -0.54048,0 -1.158178,0.566222 -2.046118,0.566222 -0.746384,0 -0.939414,-0.360323 -0.939414,-1.183919 l 0,-1.608587 1.917435,0 c 0.527617,0 0.797857,-0.167293 0.797857,-0.694909 0,-0.527617 -0.27024,-0.682041 -0.797857,-0.682041 l -1.917435,0 0,-1.467031 c 0,-0.540485 -0.193031,-0.7849903 -0.78499,-0.7849903 -0.489011,0 -0.759253,0.2702423 -0.759253,0.5276163 0,0.02574 0,0.10295 0,0.257374 l 0,1.467031 -0.59196,0 c -0.527616,0 -0.78499,0.154424 -0.78499,0.682041 0,0.527616 0.257374,0.694909 0.78499,0.694909 z"
       style=""
       id="path4277" />
    <path
       d="m 117.41426,14.684718 c 0,-1.737274 -1.33834,-3.04988 -3.42307,-3.04988 -2.08473,0 -3.43594,1.312606 -3.43594,3.04988 0,1.737273 1.35121,3.04988 3.43594,3.04988 2.08473,0 3.42307,-1.312607 3.42307,-3.04988 z m -3.42307,1.724404 c -0.97802,0 -1.6858,-0.733515 -1.6858,-1.737273 0,-0.990889 0.69491,-1.711536 1.6858,-1.711536 1.00376,0 1.67293,0.720647 1.67293,1.711536 0,0.990889 -0.68204,1.737273 -1.67293,1.737273 z"
       style=""
       id="path4279" />
    <path
       d="m 124.37059,16.190355 0,-2.097597 c 0,-1.647193 -0.63056,-2.470789 -1.99464,-2.470789 -0.79786,0 -1.37695,0.308849 -1.77588,0.913677 l 0,-0.48901 c 0,-0.167293 -0.11582,-0.270243 -0.36033,-0.270243 l -1.0681,0 c -0.52761,0 -0.78499,0.167293 -0.78499,0.69491 0,0.450404 0.23164,0.68204 0.68204,0.68204 0.0257,0 0.0643,0 0.10295,0 l 0,3.037012 c -0.0257,0 -0.0515,0 -0.0772,0 -0.47614,0 -0.70778,0.231636 -0.70778,0.694909 0,0.514748 0.24451,0.694909 0.78499,0.694909 l 1.55711,0 c 0.54049,0 0.78499,-0.180161 0.78499,-0.694909 0,-0.463273 -0.23163,-0.694909 -0.70777,-0.694909 -0.0257,0 -0.0515,0 -0.0772,0 l 0,-1.814486 c 0,-0.88794 0.52762,-1.389819 1.18392,-1.389819 0.72065,0 0.91368,0.476142 0.91368,1.389819 l 0,1.814486 c -0.0257,0 -0.0515,0 -0.0772,0 -0.47614,0 -0.72065,0.231636 -0.72065,0.694909 0,0.514748 0.25738,0.694909 0.79786,0.694909 l 1.54424,0 c 0.54049,0 0.78499,-0.180161 0.78499,-0.694909 0,-0.463273 -0.23163,-0.694909 -0.70777,-0.694909 -0.0257,0 -0.0515,0 -0.0772,0 z"
       style=""
       id="path4281" />
    <path
       d="m 136.36583,11.570494 0.88794,0 c 0.99089,0 1.49277,0.321717 1.49277,0.952283 0,0.630566 -0.50188,0.978021 -1.49277,0.978021 l -0.88794,0 0,-1.930304 z m 1.0681,-1.441293 -2.59948,0 c -0.51474,0 -0.77212,0.19303 -0.77212,0.694909 0,0.450404 0.24451,0.694909 0.68204,0.694909 0.0257,0 0.0643,0 0.0901,0 l 0,4.684204 c -0.0386,0 -0.0643,0 -0.10294,0 -0.42467,0 -0.66918,0.244506 -0.66918,0.682041 0,0.514748 0.25738,0.694909 0.77212,0.694909 l 2.16194,0 c 0.51475,0 0.77213,-0.180161 0.77213,-0.694909 0,-0.514748 -0.25738,-0.682041 -0.77213,-0.682041 l -0.63056,0 0,-1.286869 1.0681,0 c 2.07186,0 3.11422,-0.849334 3.11422,-2.45792 0,-1.518506 -1.04236,-2.329233 -3.11422,-2.329233 z"
       style=""
       id="path4283" />
    <path
       d="m 147.51735,13.87399 c 0,-1.544243 -0.60483,-2.26489 -2.49653,-2.26489 -1.75014,0 -2.76676,0.450404 -2.76676,1.106708 0,0.373192 0.23163,0.630566 0.68204,0.630566 0.59196,0 1.18392,-0.617698 1.98177,-0.617698 0.70778,0 1.08097,0.39893 1.08097,1.158183 0,0.03861 0,0.07721 0,0.115818 -0.50187,-0.09008 -0.96515,-0.128687 -1.40268,-0.128687 -1.81449,0 -2.84398,0.733516 -2.84398,1.981779 0,1.171051 0.81072,1.878829 2.16194,1.878829 0.79786,0 1.59571,-0.244505 2.29062,-0.707778 0.14156,0.437535 0.32172,0.553353 0.72065,0.553353 l 0.59196,0 c 0.54049,0 0.79786,-0.180161 0.79786,-0.68204 0,-0.450404 -0.24451,-0.69491 -0.69491,-0.69491 -0.0386,0 -0.0643,0 -0.10295,0 l 0,-2.329233 z m -1.51851,2.084728 c -0.48901,0.347455 -0.99088,0.514748 -1.56998,0.514748 -0.63056,0 -0.97802,-0.270243 -0.97802,-0.694909 0,-0.604829 0.54049,-0.926546 1.49277,-0.926546 0.30885,0 0.65631,0.05147 1.05523,0.141555 l 0,0.965152 z"
       style=""
       id="path4285" />
    <path
       d="m 150.12407,13.500798 0.59196,0 0,1.608587 c 0,0.05147 0,0.102949 0,0.141555 0,0.759253 0.0129,1.338344 0.38606,1.77588 0.36032,0.424667 1.01662,0.68204 1.90456,0.68204 1.55712,0 2.86972,-0.694909 2.86972,-1.261131 0,-0.437536 -0.29598,-0.720647 -0.63056,-0.720647 -0.54049,0 -1.15819,0.566222 -2.04613,0.566222 -0.74638,0 -0.93941,-0.360323 -0.93941,-1.183919 l 0,-1.608587 1.91744,0 c 0.52761,0 0.79785,-0.167293 0.79785,-0.694909 0,-0.527617 -0.27024,-0.682041 -0.79785,-0.682041 l -1.91744,0 0,-1.467031 c 0,-0.540485 -0.19303,-0.7849903 -0.78499,-0.7849903 -0.48901,0 -0.75925,0.2702423 -0.75925,0.5276163 0,0.02574 0,0.10295 0,0.257374 l 0,1.467031 -0.59196,0 c -0.52762,0 -0.78499,0.154424 -0.78499,0.682041 0,0.527616 0.25737,0.694909 0.78499,0.694909 z"
       style=""
       id="path4287" />
    <path
       d="m 160.15602,16.203223 0,-2.033253 c 0.72065,-0.733515 1.274,-1.106708 1.67293,-1.106708 0.34745,0 0.69491,0.411799 1.20966,0.411799 0.51474,0 0.88794,-0.347455 0.88794,-0.836465 0,-0.604829 -0.48901,-1.029496 -1.33835,-1.029496 -0.99089,0 -1.71153,0.450404 -2.56087,1.364082 l 0,-0.926546 c 0,-0.167293 -0.12868,-0.270243 -0.36032,-0.270243 l -1.33834,0 c -0.52762,0 -0.78499,0.154425 -0.78499,0.682041 0,0.527616 0.25737,0.694909 0.78499,0.694909 l 0.27024,0 0,3.04988 -0.47614,0 c -0.52762,0 -0.79786,0.154425 -0.79786,0.682041 0,0.527616 0.27024,0.694909 0.79786,0.694909 l 3.51315,0 c 0.52762,0 0.78499,-0.167293 0.78499,-0.694909 0,-0.527616 -0.25737,-0.682041 -0.78499,-0.682041 l -1.4799,0 z"
       style=""
       id="path4289" />
    <path
       d="m 166.46891,15.045041 4.05364,0 c 0.6563,0 0.91368,-0.09008 0.91368,-0.643435 0,-1.46703 -1.2354,-2.766768 -3.13996,-2.766768 -2.08473,0 -3.42308,1.312606 -3.42308,3.04988 0,1.737273 1.35122,3.04988 3.42308,3.04988 1.84022,0 3.03701,-0.720647 3.03701,-1.441294 0,-0.373192 -0.23164,-0.617697 -0.56622,-0.617697 -0.46328,0 -1.06811,0.759253 -2.41932,0.759253 -1.04236,0 -1.66006,-0.450404 -1.87883,-1.389819 z m 0,-0.978021 c 0.21877,-0.823596 0.77212,-1.222525 1.6858,-1.222525 0.93942,0 1.55711,0.437535 1.69867,1.222525 l -3.38447,0 z"
       style=""
       id="path4291" />
    <path
       d="m 179.34485,14.684718 c 0,-1.737274 -1.33835,-3.04988 -3.42308,-3.04988 -2.08472,0 -3.43594,1.312606 -3.43594,3.04988 0,1.737273 1.35122,3.04988 3.43594,3.04988 2.08473,0 3.42308,-1.312607 3.42308,-3.04988 z m -3.42308,1.724404 c -0.97802,0 -1.68579,-0.733515 -1.68579,-1.737273 0,-0.990889 0.6949,-1.711536 1.68579,-1.711536 1.00376,0 1.67293,0.720647 1.67293,1.711536 0,0.990889 -0.68204,1.737273 -1.67293,1.737273 z"
       style=""
       id="path4293" />
    <path
       d="m 186.30118,16.190355 0,-2.097597 c 0,-1.647193 -0.63056,-2.470789 -1.99465,-2.470789 -0.79785,0 -1.37695,0.308849 -1.77588,0.913677 l 0,-0.48901 c 0,-0.167293 -0.11581,-0.270243 -0.36032,-0.270243 l -1.0681,0 c -0.52762,0 -0.78499,0.167293 -0.78499,0.69491 0,0.450404 0.23164,0.68204 0.68204,0.68204 0.0257,0 0.0643,0 0.10295,0 l 0,3.037012 c -0.0257,0 -0.0515,0 -0.0772,0 -0.47614,0 -0.70778,0.231636 -0.70778,0.694909 0,0.514748 0.2445,0.694909 0.78499,0.694909 l 1.55711,0 c 0.54049,0 0.78499,-0.180161 0.78499,-0.694909 0,-0.463273 -0.23163,-0.694909 -0.70778,-0.694909 -0.0257,0 -0.0515,0 -0.0772,0 l 0,-1.814486 c 0,-0.88794 0.52762,-1.389819 1.18392,-1.389819 0.72065,0 0.91368,0.476142 0.91368,1.389819 l 0,1.814486 c -0.0257,0 -0.0515,0 -0.0772,0 -0.47615,0 -0.72065,0.231636 -0.72065,0.694909 0,0.514748 0.25737,0.694909 0.79786,0.694909 l 1.54424,0 c 0.54049,0 0.78499,-0.180161 0.78499,-0.694909 0,-0.463273 -0.23163,-0.694909 -0.70778,-0.694909 -0.0257,0 -0.0515,0 -0.0772,0 z"
       style=""
       id="path4295" />
  </g>
</svg>
