<svg xmlns:rdf="http://www.w3.org/1999/02/22-rdf-syntax-ns#" xmlns="http://www.w3.org/2000/svg" height="25.28" width="184.13" version="1.1" xmlns:cc="http://creativecommons.org/ns#" xmlns:dc="http://purl.org/dc/elements/1.1/" viewBox="0 0 184.13046 25.280001">
 <g fill="#ddd">
  <path d="m7.69 21.28h-3.69l3.66-17.25h3.69l-3.66 17.25z"/>
  <path d="m13.935 21.28h-3.69l2.76-12.99h3.69l-2.76 12.99zm3.06-14.31h-3.69l0.63-2.97h3.69l-0.63 2.97z"/>
  <path d="m33.225 8.29-7.47 12.99h-5.34l-1.92-12.99h3.63l1.29 10.62 5.88-10.62h3.93z"/>
  <path d="m47.442 16.36h-8.58l0.66-3.12h5.01q0.18-0.84 0.18-0.93 0-0.9-1.44-0.9h-2.94q-0.6 0-1.02 0.06-0.39 0.06-0.66 0.27-0.24 0.18-0.42 0.54-0.15 0.36-0.27 0.96l-0.66 3.12q-0.12 0.6-0.12 0.96 0 0.51 0.33 0.69 0.36 0.15 1.41 0.15h7.56l-0.66 3.09h-8.97q-1.08 0-1.8-0.09t-1.14-0.33-0.6-0.6q-0.18-0.39-0.18-0.99 0-0.33 0.06-0.72 0.06-0.42 0.18-0.93l1.17-5.61q0.42-1.98 1.59-2.82 1.2-0.87 3.48-0.87h5.28q2.07 0 2.88 0.42t0.81 1.62q0 0.69-0.21 1.65l-0.93 4.38z"/>
  <path d="m60.348 11.44h-4.32q-0.69 0-1.11 0.06-0.39 0.06-0.63 0.27-0.24 0.18-0.39 0.54-0.12 0.36-0.24 0.93l-1.71 8.04h-3.69l2.76-12.96h3.69l-0.33 1.62q1.02-1.62 2.76-1.62h3.87l-0.66 3.12z"/>
  <path d="m75.157 16.36h-8.58l0.66-3.12h5.01q0.18-0.84 0.18-0.93 0-0.9-1.44-0.9h-2.94q-0.6 0-1.02 0.06-0.39 0.06-0.66 0.27-0.24 0.18-0.42 0.54-0.15 0.36-0.27 0.96l-0.66 3.12q-0.12 0.6-0.12 0.96 0 0.51 0.33 0.69 0.36 0.15 1.41 0.15h7.56l-0.66 3.09h-8.97q-1.08 0-1.8-0.09t-1.14-0.33-0.6-0.6q-0.18-0.39-0.18-0.99 0-0.33 0.06-0.72 0.06-0.42 0.18-0.93l1.17-5.61q0.42-1.98 1.59-2.82 1.2-0.87 3.48-0.87h5.28q2.07 0 2.88 0.42t0.81 1.62q0 0.69-0.21 1.65l-0.93 4.38z"/>
  <path d="m80.053 21.28h-3.69l3.66-17.25h3.69l-3.66 17.25z"/>
  <path d="m97.368 17.62q-0.24 1.17-0.6 1.89-0.33 0.69-0.9 1.11-0.54 0.39-1.41 0.54-0.87 0.12-2.16 0.12h-5.7q-2.07 0-2.88-0.39-0.81-0.42-0.81-1.65 0-0.69 0.21-1.62l1.2-5.64q0.27-1.17 0.6-1.89 0.36-0.72 0.9-1.11 0.57-0.39 1.41-0.51 0.87-0.15 2.13-0.15h5.7q1.11 0 1.83 0.12 0.72 0.09 1.14 0.33 0.42 0.21 0.57 0.63 0.18 0.39 0.18 0.96 0 0.69-0.21 1.62l-1.2 5.64zm-3.39-1.26 0.66-3.12q0.15-0.75 0.15-0.99 0-0.51-0.36-0.66-0.33-0.15-1.38-0.15h-2.94q-0.63 0-1.05 0.06-0.39 0.03-0.66 0.21-0.24 0.18-0.39 0.54t-0.27 0.99l-0.66 3.12q-0.15 0.75-0.15 0.99 0 0.51 0.33 0.66 0.36 0.15 1.41 0.15h2.94q0.69 0 1.08-0.06 0.42-0.06 0.66-0.24 0.24-0.21 0.36-0.54 0.15-0.36 0.27-0.96z"/>
  <path d="m112.54 21.28h-9.54q-1.05 0-1.77-0.09-0.69-0.09-1.14-0.3-0.42-0.24-0.63-0.63-0.18-0.39-0.18-1.02 0-0.69 0.21-1.62l0.15-0.72q0.27-1.17 0.6-1.89t0.9-1.11 1.41-0.51q0.87-0.15 2.16-0.15h4.29l-0.66 3.12h-3.99q-0.54 0-0.87 0.36-0.33 0.33-0.33 0.75 0 0.69 0.81 0.69h5.55l1.05-4.92q0.15-0.75 0.15-0.99 0-0.51-0.36-0.66-0.33-0.15-1.38-0.15h-7.56l0.66-3.12h8.94q1.05 0 1.74 0.09 0.72 0.09 1.14 0.33 0.45 0.21 0.63 0.6 0.21 0.39 0.21 1.02 0 0.69-0.21 1.62l-1.98 9.3z"/>
  <path d="m128.51 21.28h-9.48q-1.05 0-1.77-0.09-0.69-0.09-1.14-0.3-0.42-0.24-0.63-0.63-0.18-0.39-0.18-1.02 0-0.69 0.21-1.62l1.2-5.64q0.27-1.17 0.6-1.89 0.36-0.72 0.9-1.11 0.57-0.39 1.41-0.51 0.87-0.15 2.13-0.15h4.53l-0.66 3.12h-3.12q-0.63 0-1.05 0.06-0.39 0.03-0.66 0.21-0.24 0.18-0.39 0.54t-0.27 0.99l-0.66 3.12q-0.15 0.75-0.15 0.99 0 0.51 0.33 0.66 0.36 0.15 1.41 0.15h4.44l3-14.16h3.69l-3.69 17.28z"/>
  <path d="m134.66 21.25h-3.69l0.63-2.97h3.69l-0.63 2.97z"/>
  <path d="m151.7 21.28h-3.66l1.71-8.04q0.15-0.75 0.15-0.99 0-0.51-0.36-0.66-0.33-0.15-1.38-0.15h-2.94q-0.69 0-1.11 0.06-0.39 0.06-0.63 0.27-0.24 0.18-0.39 0.54-0.12 0.36-0.24 0.93l-1.71 8.04h-3.69l2.76-12.96h3.69l-0.33 1.62q1.02-1.62 2.76-1.62h3.87q2.07 0 2.88 0.42 0.81 0.39 0.81 1.62 0 0.69-0.21 1.62l-1.98 9.3z"/>
  <path d="m169.02 16.36h-8.58l0.66-3.12h5.01q0.18-0.84 0.18-0.93 0-0.9-1.44-0.9h-2.94q-0.6 0-1.02 0.06-0.39 0.06-0.66 0.27-0.24 0.18-0.42 0.54-0.15 0.36-0.27 0.96l-0.66 3.12q-0.12 0.6-0.12 0.96 0 0.51 0.33 0.69 0.36 0.15 1.41 0.15h7.56l-0.66 3.09h-8.97q-1.08 0-1.8-0.09t-1.14-0.33-0.6-0.6q-0.18-0.39-0.18-0.99 0-0.33 0.06-0.72 0.06-0.42 0.18-0.93l1.17-5.61q0.42-1.98 1.59-2.82 1.2-0.87 3.48-0.87h5.28q2.07 0 2.88 0.42t0.81 1.62q0 0.69-0.21 1.65l-0.93 4.38z"/>
  <path d="m177.37 21.28h-2.97q-2.07 0-2.88-0.39-0.81-0.42-0.81-1.65 0-0.69 0.21-1.62l2.88-13.59h3.69l-0.93 4.29h3.57l-0.69 3.12h-3.51l-1.05 4.92q-0.15 0.75-0.15 0.99 0 0.51 0.33 0.66 0.36 0.15 1.41 0.15h1.56l-0.66 3.12z"/>
 </g>
</svg>
